<?xml version="1.0" encoding="UTF-8"?>
<svg version="1.1" xmlns="http://www.w3.org/2000/svg" width="705" height="705">
<path d="M0 0 C232.65 0 465.3 0 705 0 C705 232.65 705 465.3 705 705 C472.35 705 239.7 705 0 705 C0 472.35 0 239.7 0 0 Z " fill="#F9F9F9" transform="translate(0,0)"/>
<path d="M0 0 C27.00839096 -0.09357475 54.0167575 -0.16404359 81.02527809 -0.20724869 C93.56671198 -0.22784564 106.10804496 -0.25591143 118.64941406 -0.30175781 C129.5845679 -0.34171333 140.51964863 -0.36745363 151.45487344 -0.37635398 C157.24128485 -0.38155395 163.02748715 -0.393716 168.81383133 -0.42292023 C174.26882843 -0.45022703 179.72353181 -0.45841427 185.17859077 -0.45243073 C187.17229754 -0.45352416 189.16601493 -0.46138644 191.15966225 -0.4768219 C202.53758434 -0.5605347 212.20501822 0.06891866 223 4 C224.15295374 4.39878231 225.30590748 4.79756462 226.49379921 5.20843124 C249.60538868 13.357632 269.22264936 30.58316744 279.85546875 52.72265625 C290.5510473 76.99237647 291.96439929 105.19793173 282.45703125 130.08984375 C272.67344048 154.53594376 254.74898918 172.5440315 230.88964844 183.1953125 C226.35557058 185.12610328 221.7578216 186.72366539 217 188 C215.77454971 188.34159149 214.54909943 188.68318298 213.28651428 189.03512573 C206.42617077 190.53560788 199.45719736 190.26266344 192.47436523 190.22705078 C190.91640734 190.22648582 189.35844892 190.22680489 187.80049133 190.22793579 C183.59449956 190.22850697 179.38862307 190.21679084 175.18265796 190.20278788 C170.77843999 190.19024124 166.37421905 190.18910693 161.96998596 190.18673706 C153.64042484 190.18053382 145.31091654 190.1641387 136.98137861 190.14403808 C127.49405434 190.12164303 118.00672747 190.1106766 108.51938331 190.10064721 C89.01289149 190.07977141 69.50645194 190.04421265 50 190 C50 198.91 50 207.82 50 217 C33.83 217 17.66 217 1 217 C0.91592996 209.32160269 0.83581636 201.64488884 0.79299927 193.96643066 C0.77194646 190.3901789 0.74385167 186.81431131 0.69824219 183.23828125 C0.654526 179.78879534 0.63080929 176.33968008 0.62049103 172.88993835 C0.60958995 170.94460818 0.57840534 168.99942548 0.54681396 167.05432129 C0.54477184 158.93892271 1.30475112 153.38433958 6.67578125 147.01171875 C7.21589844 146.57472656 7.75601563 146.13773438 8.3125 145.6875 C9.11107422 145.01267578 9.11107422 145.01267578 9.92578125 144.32421875 C15.46304418 140.78912999 19.93196763 139.625197 26.49168396 139.62818909 C27.2132482 139.62436452 27.93481244 139.62053996 28.67824227 139.6165995 C31.07923431 139.607366 33.47964181 139.61927335 35.88061523 139.63110352 C37.60936216 139.62863365 39.33810759 139.62479335 41.06684875 139.61968994 C44.78326347 139.61136565 48.49952487 139.61214827 52.21594048 139.61987495 C58.10603239 139.63149287 63.99592872 139.61926387 69.88600159 139.60325623 C84.52243876 139.56711271 99.15887135 139.56082317 113.79534912 139.56335449 C125.16077132 139.5650707 136.52603282 139.55778687 147.89141041 139.52337593 C153.7319205 139.50668621 159.57203719 139.50828732 165.41254508 139.52419865 C169.06805945 139.53004563 172.72339225 139.51916581 176.37887383 139.50395203 C178.05728067 139.50026351 179.73571941 139.50322272 181.41409683 139.51382256 C197.70897129 139.60976306 211.94478006 137.652166 224.6875 126.6875 C227.86219703 122.99798724 230.52254727 119.18791325 233 115 C233.62841797 113.97712891 233.62841797 113.97712891 234.26953125 112.93359375 C239.04282185 103.5050798 238.54781272 90.31639318 236.08203125 80.25390625 C231.27355514 68.03819832 223.21084246 59.75891854 211.52734375 54.078125 C206.04868605 51.741016 201.34208585 50.70813701 195.39164734 50.7484436 C194.27254753 50.7439884 194.27254753 50.7439884 193.13083965 50.73944318 C190.64142793 50.73183041 188.15225405 50.73828599 185.6628418 50.74462891 C183.87362509 50.74187771 182.0844096 50.73819702 180.29519653 50.73365784 C176.44673194 50.7255551 172.59832542 50.72337507 168.74985313 50.72560501 C162.6601577 50.72844152 156.57057796 50.71407319 150.48091125 50.69662476 C133.16575862 50.64963101 115.85061397 50.62566003 98.53540039 50.61914062 C88.96880626 50.61538666 79.40234319 50.59733058 69.83580524 50.56404626 C63.78681142 50.54386017 57.73815628 50.54144838 51.68914258 50.55232644 C47.91923712 50.55493941 44.14952756 50.54090091 40.379673 50.52224541 C38.637056 50.51693729 36.8944026 50.51839652 35.15180016 50.52728081 C23.61791863 50.58132152 14.96506822 49.93761149 6 42 C-0.34358585 33.26349089 -0.77532329 24.70372527 -0.375 14.25 C-0.34481264 12.85943382 -0.31745252 11.46880329 -0.29296875 10.078125 C-0.22294653 6.71705863 -0.12477783 3.35940301 0 0 Z " fill="#010101" transform="translate(52,192)"/>
<path d="M0 0 C5.96568534 2.70120087 10.73115677 8.11751669 13.5625 13.9375 C16.00806279 22.3321978 14.66975489 30.28950813 10.5625 37.9375 C7.67208242 42.00065869 4.30568231 45.66958918 0.96435547 49.36181641 C-1.12929071 51.7150718 -3.09136968 54.16888155 -5.0625 56.625 C-8.63565632 61.01832922 -12.3737423 65.2217103 -16.1875 69.40625 C-18.51612053 72.0259481 -20.73312947 74.7126531 -22.9375 77.4375 C-25.8456338 81.0322765 -28.82291332 84.52010628 -31.9375 87.9375 C-35.77941939 92.15763944 -39.39865221 96.51777184 -42.98828125 100.953125 C-45.75560802 104.32511487 -48.58900415 107.63412321 -51.4375 110.9375 C-55.75940074 115.95326522 -59.99229675 121.02925888 -64.16796875 126.16796875 C-68.05744054 130.91432933 -72.03922462 135.58225447 -76.01269531 140.25830078 C-77.45669374 141.96012072 -78.89689716 143.66507994 -80.3359375 145.37109375 C-85.3163393 151.27394891 -90.31810688 157.15415828 -95.4375 162.9375 C-94.16145841 165.68937312 -92.79277063 167.88266965 -90.78515625 170.15234375 C-90.26147461 170.74950195 -89.73779297 171.34666016 -89.19824219 171.96191406 C-88.63782227 172.59323242 -88.07740234 173.22455078 -87.5 173.875 C-86.31839746 175.22211885 -85.13741831 176.56978473 -83.95703125 177.91796875 C-83.36486816 178.59263184 -82.77270508 179.26729492 -82.16259766 179.96240234 C-79.64291127 182.84724 -77.15980005 185.76202615 -74.6875 188.6875 C-74.23850342 189.21827148 -73.78950684 189.74904297 -73.3269043 190.29589844 C-70.44991058 193.70808561 -67.62304572 197.15801194 -64.8125 200.625 C-61.23410939 205.02476497 -57.48919182 209.23331432 -53.671875 213.42578125 C-50.65059963 216.82207506 -47.81174067 220.3534298 -44.953125 223.88671875 C-42.00825051 227.45806499 -38.98033024 230.94964487 -35.9375 234.4375 C-31.46202477 239.5696607 -27.09742449 244.76935799 -22.8125 250.0625 C-19.9125384 253.57297983 -16.92982689 257.00574349 -13.9375 260.4375 C-9.40880681 265.6335384 -4.9635991 270.87948245 -0.63671875 276.24609375 C0.96198974 278.20259491 2.57752787 280.12573473 4.23046875 282.03515625 C4.68139893 282.56085205 5.1323291 283.08654785 5.59692383 283.62817383 C6.85843951 285.09553873 8.12817212 286.55582796 9.3984375 288.015625 C14.78700985 295.29117033 15.55185058 302.14206464 14.5625 310.9375 C13.62490298 313.94261865 12.3310269 316.34654626 10.5625 318.9375 C10.02625 319.824375 9.49 320.71125 8.9375 321.625 C3.10684794 327.30221384 -2.91279974 329.27831124 -11 329.5625 C-20.96190705 329.1524215 -25.74600153 325.97537509 -32.4375 318.8125 C-36.3768659 314.27406003 -40.18272337 309.62925866 -43.95703125 304.953125 C-46.88718489 301.39079648 -49.90515967 297.91282039 -52.9375 294.4375 C-57.43515651 289.27914524 -61.82746055 284.05592163 -66.13671875 278.73828125 C-68.81808916 275.47420217 -71.55812863 272.2649928 -74.3125 269.0625 C-74.81958496 268.47291504 -75.32666992 267.88333008 -75.84912109 267.27587891 C-76.35652832 266.68597168 -76.86393555 266.09606445 -77.38671875 265.48828125 C-83.61272367 258.24933876 -89.7983624 250.97884091 -95.8125 243.5625 C-100.99249978 237.20061078 -106.39200407 231.03437458 -111.77783203 224.84716797 C-118.79034003 216.77834809 -125.72915157 208.66031008 -132.45703125 200.3515625 C-134.26236044 198.15098373 -136.11659159 196.00865149 -138 193.875 C-140.4375 190.9375 -140.4375 190.9375 -140.4375 188.9375 C-149.3475 188.9375 -158.2575 188.9375 -167.4375 188.9375 C-167.4375 172.4375 -167.4375 155.9375 -167.4375 138.9375 C-158.5275 138.9375 -149.6175 138.9375 -140.4375 138.9375 C-139.7775 137.2875 -139.1175 135.6375 -138.4375 133.9375 C-136.6073181 131.78914802 -134.77465887 129.76789346 -132.8125 127.75 C-128.50870745 123.21075905 -124.47618501 118.59448705 -120.625 113.66015625 C-117.83948507 110.19318499 -114.92512076 106.84932387 -112 103.5 C-108.24444463 99.19739448 -104.53077443 94.87780781 -100.9375 90.4375 C-96.86122051 85.4056092 -92.63466102 80.51771699 -88.38378906 75.63378906 C-81.47065945 67.68752391 -74.64525634 59.67235295 -68 51.5 C-63.58836945 46.08179421 -59.04426358 40.7847915 -54.48828125 35.48828125 C-51.5625037 32.08649541 -48.65130143 28.67267695 -45.75 25.25 C-45.29657227 24.71697266 -44.84314453 24.18394531 -44.37597656 23.63476562 C-41.44097465 20.17057075 -38.62117217 16.63053587 -35.8125 13.0625 C-26.35495928 1.43159266 -15.23360907 -4.84841782 0 0 Z " fill="#010101" transform="translate(639.4375,193.0625)"/>
<path d="M0 0 C36.25407925 0 36.25407925 0 42.98828125 5.67578125 C43.42527344 6.21589844 43.86226563 6.75601563 44.3125 7.3125 C44.76238281 7.84488281 45.21226562 8.37726563 45.67578125 8.92578125 C50.15307606 15.93888905 50.42028724 21.7263569 50.34057617 29.90209961 C50.34123329 31.67390594 50.34123329 31.67390594 50.34190369 33.48150635 C50.34017838 36.702222 50.32518864 39.92254074 50.30418181 43.14317775 C50.28535977 46.51572728 50.28366024 49.88828557 50.28010559 53.26087952 C50.27080128 59.63913659 50.24620957 66.01723841 50.21605712 72.39542729 C50.18246264 79.66024201 50.16601446 86.92506435 50.15097082 94.18993747 C50.11965838 109.12672554 50.06466673 124.06331211 50 139 C60.56 139 71.12 139 82 139 C82 155.83 82 172.66 82 190 C71.44 190 60.88 190 50 190 C50 198.25 50 206.5 50 215 C33.5 215 17 215 0 215 C0 144.05 0 73.1 0 0 Z " fill="#020202" transform="translate(366,192)"/>
<path d="M0 0 C16.5 0 33 0 50 0 C50.20054405 18.06679034 50.20054405 18.06679034 50.24414062 25.81640625 C50.27393623 31.08766095 50.30903886 36.35847805 50.37719727 41.62939453 C50.43185014 45.88289789 50.46148994 50.13593146 50.47438622 54.38975906 C50.48356685 56.00598157 50.50149374 57.62218073 50.52865028 59.23820114 C50.69066011 69.28607772 50.47625764 78.18982028 43.1855011 85.92514038 C31.14787044 97.17258391 17.32522774 92 0 92 C0 61.64 0 31.28 0 0 Z " fill="#020303" transform="translate(366,430)"/>
<path d="M0 0 C16.83 0 33.66 0 51 0 C51.12032643 16.31982886 51.12032643 16.31982886 51.14648438 23.328125 C51.16435092 28.0922256 51.18538427 32.85615165 51.22631836 37.62011719 C51.25914583 41.4651085 51.27690176 45.30991236 51.28463173 49.15503311 C51.29013361 50.61490958 51.30087635 52.07477692 51.31719017 53.5345726 C51.44038984 65.02585822 51.02150647 74.77279619 42.76171875 83.37890625 C31.00347815 94.19857332 15.30242351 90 0 90 C0 60.3 0 30.6 0 0 Z " fill="#060606" transform="translate(52,433)"/>
</svg>
